{"glyphs":{":":{"x_min":0,"x_max":309,"ha":309,"o":"m 120 237 q 86 238 70 262 q 55 285 67 317 q 80 350 113 372 q 146 394 183 394 q 207 393 224 379 q 241 365 241 341 q 241 328 235 313 q 222 280 188 258 q 155 236 120 237 z m 120 603 q 86 604 70 627 q 55 650 67 683 q 80 715 114 737 q 147 760 183 759 q 207 758 224 744 q 241 730 241 706 q 241 693 235 679 q 222 646 188 624 q 155 602 120 603 z"},"$":{"x_min":0,"x_max":863,"ha":863,"o":"m 626 1062 q 656 1072 681 1072 q 720 1072 743 1047 q 756 1031 756 1013 q 756 979 710 931 q 492 870 350 745 q 464 769 550 769 q 669 769 732 723 q 841 644 832 523 q 821 388 713 280 q 604 172 469 157 q 471 126 473 110 q 474 71 458 52 q 442 33 410 36 q 344 40 329 110 q 327 117 326 141 l 324 172 q 245 196 176 253 q 128 270 128 304 q 128 316 134 330 q 149 369 179 369 q 190 369 204 362 q 292 320 380 320 q 436 320 492 338 q 636 383 678 456 q 689 476 689 495 q 689 545 610 587 q 545 622 389 622 q 285 622 142 606 q 65 633 65 679 q 65 741 184 826 q 244 869 313 909 q 317 961 329 1065 q 329 1117 396 1125 q 462 1132 473 1065 q 469 1037 466 990 q 521 1018 626 1062 z"},"?":{"x_min":0,"x_max":679,"ha":679,"o":"m 163 224 q 129 225 113 248 q 98 271 110 304 q 124 337 156 358 q 188 380 225 379 q 261 378 275 355 q 290 332 277 299 q 265 266 231 244 q 197 222 163 224 z m 189 1072 q 224 1074 256 1074 q 376 1074 479 1042 q 619 998 650 910 q 656 892 656 873 q 656 812 593 747 q 509 660 282 595 q 277 562 271 498 q 265 465 230 465 q 217 465 198 471 q 135 489 129 534 q 132 565 150 625 q 168 684 172 712 l 175 710 l 175 711 l 175 711 q 272 718 359 742 q 495 779 504 840 q 512 899 380 927 q 305 942 210 944 q 128 945 124 990 q 119 1033 189 1072 z"},"<":{"x_min":0,"x_max":629,"ha":629,"o":"m 458 1006 q 479 1026 507 1027 q 574 1028 600 976 q 604 966 604 956 q 604 940 593 924 q 376 709 229 547 q 329 448 516 287 q 563 245 563 191 q 563 176 560 160 q 548 112 520 112 q 504 112 484 126 q 395 199 307 276 q 249 329 131 435 q 62 495 62 543 q 62 555 65 566 q 85 629 146 681 q 273 825 458 1006 z"},"'":{"x_min":0,"x_max":327,"ha":327,"o":"m 157 677 q 146 670 138 670 q 120 670 111 695 q 96 740 115 823 q 131 891 159 946 q 204 1036 245 1036 q 263 1036 271 1011 q 284 974 270 899 q 258 838 230 777 q 196 699 157 677 z"},"=":{"x_min":0,"x_max":672,"ha":672,"o":"m 97 600 q 68 599 63 665 q 59 731 94 742 q 196 724 299 724 q 418 724 603 752 q 623 755 633 739 q 644 724 644 691 q 643 626 605 609 q 428 576 298 576 q 197 576 97 600 z m 97 342 q 68 342 63 408 q 59 475 94 485 q 196 467 299 467 q 418 467 603 495 q 623 498 633 482 q 644 467 644 435 q 643 369 605 353 q 433 319 299 319 q 197 319 97 342 z"},"a":{"x_min":0,"x_max":672,"ha":672,"o":"m 212 405 q 302 418 480 450 q 474 469 430 637 q 396 766 370 796 q 286 676 212 405 z m 1 229 q 72 418 143 607 q 246 876 309 952 q 340 991 372 991 q 408 991 445 941 q 514 848 601 475 q 627 469 646 452 q 666 432 665 407 q 664 378 635 356 q 643 325 661 298 q 676 275 683 236 q 686 218 686 202 q 686 146 646 134 q 634 130 623 130 q 586 130 572 178 q 563 210 547 251 q 535 264 521 324 q 402 312 344 304 q 243 290 168 271 l 142 223 q 140 220 115 174 q 75 125 42 125 q 20 125 5 142 q -10 159 -10 182 q -10 202 1 229 z"},"L":{"x_min":0,"x_max":660,"ha":660,"o":"m 94 949 q 94 990 160 996 q 227 1002 236 949 q 232 709 217 571 q 210 513 210 469 q 210 407 223 373 q 244 313 329 321 q 396 327 609 381 q 620 384 629 384 q 671 384 678 329 q 685 264 632 239 q 394 173 210 146 q 195 138 178 138 q 162 138 144 145 q 104 158 94 196 q 72 384 67 572 q 62 761 94 949 z"},"3":{"x_min":0,"x_max":703,"ha":703,"o":"m 107 923 q 306 992 463 992 q 521 992 584 984 q 681 932 681 879 q 681 858 667 839 q 578 774 403 643 q 458 660 504 660 q 569 660 618 624 q 699 562 697 468 q 694 372 594 278 q 489 181 261 162 q 196 157 172 202 q 164 216 164 229 q 164 256 195 279 q 286 299 373 331 q 491 375 531 420 q 545 436 545 450 q 545 475 510 495 q 450 530 235 541 q 204 543 164 560 q 136 571 136 600 q 136 616 145 638 q 201 662 301 733 q 400 804 455 828 q 428 833 396 833 q 349 833 293 821 q 247 812 131 794 q 119 792 110 792 q 63 792 62 840 q 61 898 107 923 z"},";":{"x_min":0,"x_max":320,"ha":320,"o":"m 132 35 q 121 28 112 28 q 95 28 86 55 q 70 101 90 183 q 105 248 134 305 q 179 395 220 395 q 237 395 246 369 q 259 332 244 258 q 232 196 205 136 q 171 58 132 35 z m 152 601 q 118 602 103 625 q 87 648 100 681 q 112 713 146 735 q 179 757 215 757 q 239 756 256 742 q 273 729 273 704 q 273 691 268 677 q 254 644 221 622 q 188 600 152 601 z"},"J":{"x_min":0,"x_max":734,"ha":734,"o":"m 331 994 q 603 846 686 664 q 735 555 735 462 q 735 400 714 347 q 659 210 492 159 q 440 144 383 144 q 254 144 97 223 q 21 286 27 323 q 33 360 89 363 q 255 288 379 288 q 550 288 597 390 q 609 418 609 451 q 609 519 558 608 q 479 742 246 892 q 223 914 223 937 q 223 954 239 973 q 263 1000 297 1000 q 313 1000 331 994 z"},"V":{"x_min":0,"x_max":722,"ha":722,"o":"m 35 915 q 31 924 31 933 q 31 964 78 990 q 103 1005 122 1005 q 149 1005 167 977 q 243 683 390 373 q 500 610 611 975 q 624 1017 655 1017 q 671 1017 690 1007 q 749 976 742 914 q 622 479 469 203 q 475 153 419 137 q 403 132 390 132 q 354 132 330 164 q 327 170 325 175 q 318 183 315 193 q 108 595 35 915 z"},"\"":{"x_min":0,"x_max":450,"ha":450,"o":"m 140 658 q 130 652 121 652 q 93 652 73 710 q 61 748 58 790 q 52 848 62 908 q 74 989 108 1013 q 117 1019 126 1019 q 155 1019 174 961 q 186 924 189 881 q 194 823 186 762 q 173 681 140 658 z m 354 658 q 346 652 337 652 q 309 652 289 710 q 276 748 273 790 q 268 848 277 908 q 290 989 323 1013 q 332 1019 341 1019 q 371 1019 390 961 q 401 924 405 881 q 410 823 400 762 q 388 681 354 658 z"},"7":{"x_min":0,"x_max":753,"ha":753,"o":"m 92 885 q 255 980 624 986 q 673 982 704 951 q 735 920 735 871 q 735 856 732 840 q 703 649 639 487 q 590 364 479 162 q 430 139 396 139 q 337 139 337 192 q 337 202 339 213 q 503 497 561 821 q 527 829 493 829 q 433 829 367 806 q 266 769 175 739 q 82 736 66 792 q 62 808 62 821 q 62 857 92 885 z"},"S":{"x_min":0,"x_max":820,"ha":820,"o":"m 608 1019 q 639 1028 663 1028 q 702 1028 726 1003 q 738 987 738 970 q 738 935 692 887 q 473 825 333 701 q 440 723 521 723 q 686 723 762 644 q 812 590 814 516 q 820 360 686 228 q 568 111 413 111 q 280 111 159 209 q 111 226 111 260 q 111 272 117 286 q 134 325 162 325 q 174 325 188 319 q 276 277 364 277 q 420 277 476 295 q 618 339 660 412 q 672 432 672 451 q 672 501 594 544 q 527 579 371 579 q 268 579 125 563 q 44 592 44 636 q 44 655 61 679 q 158 812 467 955 q 592 1013 608 1019 z"},"}":{"x_min":0,"x_max":599,"ha":599,"o":"m 427 955 q 339 845 151 794 q 122 796 89 852 q 68 883 68 900 q 68 912 79 917 q 255 970 354 1078 q 378 1081 410 1022 q 432 982 432 966 q 432 958 427 955 z m 131 354 q 270 353 427 237 q 434 228 434 212 q 434 188 420 153 q 401 103 382 103 q 378 103 374 104 q 223 210 78 222 q 71 229 71 242 q 71 263 88 300 q 114 360 131 354 z m 556 552 q 468 471 280 479 q 251 491 218 558 q 197 596 197 613 q 197 626 208 627 q 384 623 483 698 q 507 692 539 624 q 560 579 560 559 q 560 553 556 552 z"},"Z":{"x_min":0,"x_max":857,"ha":857,"o":"m 251 986 q 260 992 298 992 q 335 992 400 986 q 525 975 634 946 q 778 907 844 847 q 864 826 864 803 q 864 760 788 706 q 437 606 336 511 q 267 443 267 394 q 267 372 280 354 q 332 281 490 281 q 611 281 722 350 q 744 363 764 353 q 794 334 794 298 q 794 255 750 240 q 572 149 413 149 q 381 149 349 153 q 161 176 94 271 q 65 311 65 356 q 65 424 124 506 q 223 645 581 768 q 497 841 380 835 q 356 833 335 833 q 243 833 167 854 q 121 902 121 938 q 121 956 134 971 q 156 996 195 996 q 220 996 251 986 z"},"x":{"x_min":0,"x_max":722,"ha":722,"o":"m 62 881 q 54 893 54 907 q 54 940 86 973 q 114 1001 145 1001 q 163 1001 180 986 q 259 839 359 697 q 466 842 580 958 q 593 977 618 974 q 649 969 677 941 q 704 913 704 882 q 704 868 697 854 q 575 720 459 560 q 506 499 675 298 q 694 275 694 253 q 694 225 664 200 q 634 175 604 175 q 581 175 558 192 q 449 314 363 421 q 354 407 205 162 q 186 130 160 130 q 140 130 116 153 q 80 188 80 229 q 80 247 88 267 q 171 418 261 556 q 146 715 62 881 z"},")":{"x_min":0,"x_max":469,"ha":469,"o":"m 188 1078 q 300 968 364 839 q 437 696 437 553 q 437 309 238 117 q 180 72 137 72 q 115 72 96 85 q 76 98 76 118 q 76 146 115 188 q 317 409 316 590 q 315 766 97 966 q 62 1018 62 1058 q 62 1101 102 1101 q 133 1101 188 1078 z"},"&":{"x_min":0,"x_max":765,"ha":765,"o":"m 644 985 q 734 984 735 944 q 736 899 695 891 q 590 893 497 883 q 337 866 337 820 q 337 804 360 782 q 404 739 596 675 q 669 650 669 620 q 669 576 560 566 q 501 562 383 547 q 253 521 211 457 q 208 441 208 428 q 208 346 328 309 q 417 280 565 280 q 593 280 619 281 q 679 265 671 224 q 663 182 612 171 q 541 155 466 152 q 470 114 460 79 q 447 35 418 22 q 409 19 401 19 q 384 19 367 35 q 331 72 331 135 q 331 146 332 160 q 169 188 107 289 q 62 363 62 438 q 62 567 180 641 q 225 668 283 668 q 343 668 416 639 q 163 712 163 812 q 163 864 239 909 q 304 946 399 968 q 379 1005 379 1046 q 379 1079 390 1109 q 403 1147 429 1159 q 438 1163 446 1163 q 474 1163 493 1131 q 508 1106 513 1074 q 516 1056 516 1039 q 516 1011 508 985 l 508 985 l 508 984 q 529 986 644 985 z"},"_":{"x_min":0,"x_max":647,"ha":647,"o":"m -1 49 l -1 138 l 659 138 l 659 49 z"},"v":{"x_min":0,"x_max":722,"ha":722,"o":"m 35 915 q 31 924 31 933 q 31 964 78 990 q 103 1005 122 1005 q 149 1005 167 977 q 243 683 390 373 q 500 610 611 975 q 624 1017 655 1017 q 671 1017 690 1007 q 749 976 742 914 q 622 479 469 203 q 475 153 419 137 q 403 132 390 132 q 354 132 330 164 q 327 170 325 175 q 318 183 315 193 q 108 595 35 915 z"},"O":{"x_min":0,"x_max":777,"ha":777,"o":"m 535 975 q 676 928 737 775 q 770 696 770 612 q 770 537 743 458 q 688 291 548 207 q 458 153 369 153 q 317 153 267 171 q 125 219 64 369 q 32 449 32 532 q 32 608 59 687 q 113 853 254 938 q 344 991 435 991 q 484 991 535 975 z m 485 834 q 442 849 396 838 q 351 827 314 803 q 244 755 207 677 q 169 596 171 515 q 173 429 224 354 q 275 279 373 287 q 468 295 532 374 q 620 481 620 599 q 620 652 602 713 q 573 804 485 834 z"},"(":{"x_min":0,"x_max":469,"ha":469,"o":"m 310 1078 q 365 1101 396 1101 q 436 1101 436 1057 q 436 1017 401 966 q 182 766 182 590 q 182 409 383 188 q 421 146 421 119 q 421 98 402 85 q 383 72 360 72 q 318 72 260 117 q 61 308 61 553 q 61 706 143 856 q 207 977 310 1078 z"},"C":{"x_min":0,"x_max":790,"ha":790,"o":"m 557 978 q 619 983 670 941 q 738 884 738 814 q 738 786 724 761 q 699 719 624 720 q 605 731 596 762 q 587 792 573 799 q 539 814 504 814 q 446 814 388 771 q 293 703 218 599 q 165 495 165 431 q 165 401 176 380 q 210 311 296 292 q 341 281 392 281 q 438 281 489 290 q 598 307 670 333 q 688 343 708 343 q 734 343 756 327 q 777 311 777 286 q 777 244 720 212 q 525 154 392 154 q 129 154 53 301 q 17 370 21 453 q 28 628 177 784 q 247 858 344 911 q 446 967 557 978 z"},"W":{"x_min":0,"x_max":852,"ha":852,"o":"m 59 933 q 57 957 75 976 q 93 994 118 999 q 186 1010 218 922 q 218 785 221 734 q 227 629 248 550 q 271 709 411 929 q 417 976 471 980 q 524 984 533 916 q 553 842 584 734 l 635 552 q 665 622 677 746 q 684 847 690 948 q 698 988 756 988 q 797 988 825 960 q 843 941 843 915 q 843 908 842 901 q 817 729 793 557 q 765 354 719 218 q 676 90 628 102 q 577 113 560 157 q 552 244 510 417 q 469 587 461 677 q 412 557 363 437 q 307 294 284 189 q 262 139 222 139 q 162 139 146 245 q 93 418 82 590 z"},"A":{"x_min":0,"x_max":672,"ha":672,"o":"m 212 405 q 302 418 480 450 q 474 469 430 637 q 396 766 370 796 q 286 676 212 405 z m 1 229 q 72 418 143 607 q 246 876 309 952 q 340 991 372 991 q 408 991 445 941 q 514 848 601 475 q 627 469 646 452 q 666 432 665 407 q 664 378 635 356 q 643 325 661 298 q 676 275 683 236 q 686 218 686 202 q 686 146 646 134 q 634 130 623 130 q 586 130 572 178 q 563 210 547 251 q 535 264 521 324 q 402 312 344 304 q 243 290 168 271 l 142 223 q 140 220 115 174 q 75 125 42 125 q 20 125 5 142 q -10 159 -10 182 q -10 202 1 229 z"},"f":{"x_min":0,"x_max":642,"ha":642,"o":"m 86 921 q 98 996 163 999 q 261 1003 389 981 q 499 959 610 937 q 660 911 657 877 q 653 842 614 825 q 489 832 379 845 q 350 848 325 848 q 259 848 231 822 q 223 813 221 769 q 219 745 219 721 q 219 643 229 570 q 235 523 245 512 q 266 510 286 510 q 335 510 390 521 q 449 532 526 551 q 550 557 566 534 q 580 516 584 490 q 587 461 576 441 q 562 420 534 422 q 476 394 379 380 q 275 365 238 351 q 230 324 223 300 q 223 302 229 286 q 238 268 242 249 q 236 155 172 133 q 160 129 151 129 q 102 129 87 224 q 63 376 62 567 q 60 751 86 921 z"},"Q":{"x_min":0,"x_max":790,"ha":790,"o":"m 536 976 q 677 929 738 776 q 770 697 770 614 q 770 475 693 354 q 753 267 799 161 q 806 146 806 131 q 806 98 772 69 q 751 52 735 52 q 715 52 700 82 q 668 152 604 249 q 493 155 366 155 q 317 155 268 172 q 125 220 64 370 q 33 448 33 531 q 33 607 60 688 q 115 854 255 938 q 345 992 436 992 q 485 992 536 976 z m 345 534 q 308 556 307 580 q 303 632 378 634 q 413 635 443 612 q 519 557 594 477 q 620 543 620 600 q 620 654 602 714 q 573 805 486 835 q 444 850 397 839 q 351 828 314 804 q 244 756 207 677 q 170 599 172 516 q 174 429 224 354 q 274 280 373 288 q 453 295 520 361 q 442 453 345 534 z"},"w":{"x_min":0,"x_max":852,"ha":852,"o":"m 59 933 q 57 957 75 976 q 93 994 118 999 q 186 1010 218 922 q 218 785 221 734 q 227 629 248 550 q 271 709 411 929 q 417 976 471 980 q 524 984 533 916 q 553 842 584 734 l 635 552 q 665 622 677 746 q 684 847 690 948 q 698 988 756 988 q 797 988 825 960 q 843 941 843 915 q 843 908 842 901 q 817 729 793 557 q 765 354 719 218 q 676 90 628 102 q 577 113 560 157 q 552 244 510 417 q 469 587 461 677 q 412 557 363 437 q 307 294 284 189 q 262 139 222 139 q 162 139 146 245 q 93 418 82 590 z"},"-":{"x_min":0,"x_max":672,"ha":672,"o":"m 103 459 q 74 458 69 524 q 63 591 100 602 q 202 583 305 583 q 444 583 607 612 q 628 613 638 598 q 648 583 648 551 q 647 485 610 469 q 433 436 303 436 q 203 436 103 459 z"},"E":{"x_min":0,"x_max":703,"ha":703,"o":"m 88 934 q 103 1009 164 1012 q 264 1016 390 997 q 438 989 611 955 q 661 930 658 896 q 654 860 615 844 q 491 851 381 860 q 357 861 337 861 q 262 861 232 834 q 215 817 213 765 q 211 712 230 688 q 303 701 375 714 q 463 729 519 725 q 542 729 559 707 q 572 689 576 664 q 579 634 567 616 q 555 595 525 596 q 457 597 365 581 q 249 561 224 526 q 231 423 245 380 q 272 288 339 283 q 391 279 511 312 q 685 360 687 360 q 719 360 732 312 q 734 302 734 294 q 734 258 687 242 q 464 146 335 146 q 193 146 130 259 q 83 343 76 502 q 74 552 74 608 q 74 751 88 934 z"},"s":{"x_min":0,"x_max":820,"ha":820,"o":"m 608 1019 q 639 1028 663 1028 q 702 1028 726 1003 q 738 987 738 970 q 738 935 692 887 q 473 825 333 701 q 440 723 521 723 q 686 723 762 644 q 812 590 814 516 q 820 360 686 228 q 568 111 413 111 q 280 111 159 209 q 111 226 111 260 q 111 272 117 286 q 134 325 162 325 q 174 325 188 319 q 276 277 364 277 q 420 277 476 295 q 618 339 660 412 q 672 432 672 451 q 672 501 594 544 q 527 579 371 579 q 268 579 125 563 q 44 592 44 636 q 44 655 61 679 q 158 812 467 955 q 592 1013 608 1019 z"},">":{"x_min":0,"x_max":629,"ha":629,"o":"m 209 1006 q 384 836 521 681 q 582 629 603 566 q 605 555 605 543 q 605 495 536 435 q 478 381 360 276 q 271 199 184 126 q 163 112 147 112 q 119 112 107 160 q 104 176 104 191 q 104 246 151 287 q 327 438 438 547 q 291 709 74 924 q 62 941 62 957 q 62 991 104 1014 q 129 1027 159 1027 q 188 1026 209 1006 z"},"l":{"x_min":0,"x_max":660,"ha":660,"o":"m 94 949 q 94 990 160 996 q 227 1002 236 949 q 232 709 217 571 q 210 513 210 469 q 210 407 223 373 q 244 313 329 321 q 396 327 609 381 q 620 384 629 384 q 671 384 678 329 q 685 264 632 239 q 394 173 210 146 q 195 138 178 138 q 162 138 144 145 q 104 158 94 196 q 72 384 67 572 q 62 761 94 949 z"},"8":{"x_min":0,"x_max":679,"ha":679,"o":"m 319 998 q 375 1013 427 1013 q 485 1013 538 994 q 636 959 652 880 q 671 789 577 704 q 649 634 649 518 q 649 418 588 318 q 513 197 392 150 q 335 129 283 129 q 225 129 173 157 q 76 210 60 333 q 57 354 57 377 q 57 510 154 627 q 62 671 62 759 q 62 824 124 889 q 199 968 319 998 z m 437 765 q 470 778 493 800 q 527 829 520 856 q 508 896 427 896 q 392 896 352 886 q 309 874 271 852 q 220 820 220 787 q 220 742 299 737 q 388 767 437 765 z m 369 600 q 302 573 252 500 q 210 439 210 379 q 210 366 212 354 q 222 283 286 284 q 374 286 443 381 q 495 450 495 516 q 495 538 488 561 q 476 603 440 607 q 402 613 369 600 z"},"\\":{"x_min":0,"x_max":775,"ha":775,"o":"m 190 998 q 176 1021 146 1025 q 83 1032 54 984 q 47 973 47 960 q 47 946 55 932 q 218 719 345 537 q 454 380 593 142 q 634 71 706 78 q 758 82 758 117 q 758 130 750 147 q 470 648 190 998 z"},"e":{"x_min":0,"x_max":703,"ha":703,"o":"m 88 934 q 103 1009 164 1012 q 264 1016 390 997 q 438 989 611 955 q 661 930 658 896 q 654 860 615 844 q 491 851 381 860 q 357 861 337 861 q 262 861 232 834 q 215 817 213 765 q 211 712 230 688 q 303 701 375 714 q 463 729 519 725 q 542 729 559 707 q 572 689 576 664 q 579 634 567 616 q 555 595 525 596 q 457 597 365 581 q 249 561 224 526 q 231 423 245 380 q 272 288 339 283 q 391 279 511 312 q 685 360 687 360 q 719 360 732 312 q 734 302 734 294 q 734 258 687 242 q 464 146 335 146 q 193 146 130 259 q 83 343 76 502 q 74 552 74 608 q 74 751 88 934 z"},"b":{"x_min":0,"x_max":690,"ha":690,"o":"m 74 931 q 89 987 156 981 q 202 978 327 953 q 420 935 489 904 q 600 856 600 795 q 600 745 500 682 q 682 635 682 532 q 682 445 583 353 q 513 287 409 230 q 279 160 157 141 q 146 139 136 139 q 87 139 77 184 q 53 300 52 555 q 51 666 57 770 q 62 885 74 931 z m 198 831 q 187 793 187 756 q 187 719 198 682 q 441 713 436 783 q 431 836 295 836 q 253 836 198 831 z m 188 553 q 181 509 181 465 q 181 369 212 274 q 318 302 406 348 q 543 418 533 492 q 526 542 438 564 q 403 573 357 573 q 286 573 188 553 z"},"%":{"x_min":0,"x_max":969,"ha":969,"o":"m 726 1011 q 741 1034 771 1038 q 840 1045 870 997 q 877 985 877 973 q 877 959 869 944 q 784 840 680 703 q 725 728 771 728 q 862 728 915 646 q 954 585 954 505 q 954 479 950 452 q 935 348 865 268 q 788 178 688 178 q 598 178 545 258 q 506 317 506 397 q 506 439 516 480 q 422 347 305 154 q 262 84 187 91 q 132 95 132 130 q 132 143 140 160 q 229 312 318 452 q 279 437 242 437 q 151 437 100 517 q 61 576 61 656 q 61 683 64 711 q 80 815 149 896 q 227 985 326 985 q 413 985 465 910 q 508 848 508 764 q 508 746 506 728 q 612 875 726 1011 z m 771 572 q 767 572 755 568 q 702 544 674 471 q 658 433 658 401 q 658 370 673 345 q 683 327 705 337 q 758 359 786 434 q 801 471 801 502 q 801 533 786 560 q 779 572 771 572 z m 326 831 q 320 831 309 827 q 256 803 228 729 q 213 692 213 661 q 213 630 228 604 q 237 585 259 595 q 312 618 340 692 q 354 729 354 762 q 354 792 341 818 q 332 831 326 831 z"},"m":{"x_min":0,"x_max":839,"ha":839,"o":"m 44 207 q 67 379 90 551 q 121 746 176 887 q 196 982 246 988 q 295 993 316 935 q 332 828 379 683 q 421 560 462 437 q 475 526 526 692 q 579 862 593 948 q 613 990 665 999 q 714 1008 748 878 q 798 690 802 528 q 806 354 827 188 q 828 150 803 127 q 778 104 741 104 q 717 104 697 115 q 674 128 673 150 q 672 251 672 352 q 670 472 643 550 q 601 432 518 193 q 505 125 451 133 q 397 140 396 188 q 271 411 257 576 q 218 460 203 207 q 172 134 114 134 q 78 134 56 163 q 40 182 44 207 z"},"#":{"x_min":0,"x_max":944,"ha":944,"o":"m 273 946 q 273 987 340 993 q 406 999 416 946 q 403 847 398 751 q 472 755 539 763 q 546 858 561 946 q 561 987 627 993 q 693 999 703 946 q 693 873 688 782 q 740 791 846 809 q 854 810 859 810 q 907 810 909 752 q 911 687 857 666 q 760 646 682 635 l 682 563 q 682 527 684 492 q 745 502 869 521 q 876 522 883 522 q 930 522 933 465 q 935 399 880 379 l 785 361 q 737 353 690 346 l 696 270 q 699 244 703 194 q 705 163 689 148 q 674 133 642 135 q 576 138 561 194 q 554 254 547 327 q 476 319 405 315 q 409 275 416 194 q 418 163 402 148 q 387 133 354 135 q 289 138 273 194 q 270 224 267 254 l 261 313 q 195 313 131 319 q 90 315 78 382 q 76 394 76 403 q 76 450 119 462 q 185 459 251 459 q 247 521 247 600 q 178 600 107 605 q 66 603 55 668 q 53 680 53 690 q 53 736 96 748 q 134 745 173 745 l 251 745 q 256 840 273 946 z m 395 603 q 395 533 397 463 q 465 467 537 475 q 534 545 534 615 q 473 607 395 603 z"},",":{"x_min":0,"x_max":327,"ha":327,"o":"m 157 35 q 146 28 138 28 q 120 28 111 55 q 96 101 115 183 q 131 248 159 305 q 204 395 245 395 q 263 395 271 369 q 284 332 270 258 q 258 196 230 136 q 196 58 157 35 z"},"n":{"x_min":0,"x_max":777,"ha":777,"o":"m 101 983 q 105 1007 134 1026 q 159 1042 187 1046 q 221 1051 240 1034 q 260 1018 259 983 q 257 978 257 973 q 320 768 384 608 q 506 302 575 302 q 629 302 622 504 q 615 683 549 983 q 553 1025 588 1020 q 622 1013 663 973 q 755 718 755 525 q 755 488 752 453 q 730 237 645 167 q 608 139 567 139 q 509 139 438 199 q 316 301 227 634 q 221 410 259 148 q 263 120 236 107 q 216 98 186 100 q 108 104 101 148 q 63 363 62 562 q 59 772 101 983 z"},"h":{"x_min":0,"x_max":703,"ha":703,"o":"m 83 997 q 83 1042 149 1049 q 216 1056 227 997 q 204 815 204 605 q 204 515 208 425 q 301 445 485 484 q 481 564 481 645 q 481 849 508 1020 q 508 1064 574 1071 q 641 1077 651 1020 q 629 839 629 634 q 629 575 631 516 q 634 516 640 518 q 701 509 701 457 q 700 405 646 379 l 637 377 q 642 313 651 187 q 653 152 638 136 q 622 120 589 122 q 523 125 508 187 q 501 257 494 341 l 218 272 q 221 237 227 165 q 229 131 213 115 q 197 99 164 101 q 99 104 83 165 q 62 373 57 581 q 52 789 83 997 z"},"z":{"x_min":0,"x_max":857,"ha":857,"o":"m 251 986 q 260 992 298 992 q 335 992 400 986 q 525 975 634 946 q 778 907 844 847 q 864 826 864 803 q 864 760 788 706 q 437 606 336 511 q 267 443 267 394 q 267 372 280 354 q 332 281 490 281 q 611 281 722 350 q 744 363 764 353 q 794 334 794 298 q 794 255 750 240 q 572 149 413 149 q 381 149 349 153 q 161 176 94 271 q 65 311 65 356 q 65 424 124 506 q 223 645 581 768 q 497 841 380 835 q 356 833 335 833 q 243 833 167 854 q 121 902 121 938 q 121 956 134 971 q 156 996 195 996 q 220 996 251 986 z"},"B":{"x_min":0,"x_max":690,"ha":690,"o":"m 74 931 q 89 987 156 981 q 202 978 327 953 q 420 935 489 904 q 600 856 600 795 q 600 745 500 682 q 682 635 682 532 q 682 445 583 353 q 513 287 409 230 q 279 160 157 141 q 146 139 136 139 q 87 139 77 184 q 53 300 52 555 q 51 666 57 770 q 62 885 74 931 z m 198 831 q 187 793 187 756 q 187 719 198 682 q 441 713 436 783 q 431 836 295 836 q 253 836 198 831 z m 188 553 q 181 509 181 465 q 181 369 212 274 q 318 302 406 348 q 543 418 533 492 q 526 542 438 564 q 403 573 357 573 q 286 573 188 553 z"},"K":{"x_min":0,"x_max":660,"ha":660,"o":"m 91 958 q 91 999 157 1005 q 224 1011 233 958 q 199 751 199 658 q 199 564 231 564 q 271 564 366 718 q 438 833 522 980 q 540 999 561 999 q 583 999 609 978 q 643 949 643 925 q 643 914 636 903 q 579 812 522 720 q 430 569 429 545 q 425 503 525 373 q 592 292 657 212 q 666 193 666 176 q 666 145 637 116 q 615 96 596 96 q 574 96 554 122 q 394 274 334 351 q 309 383 286 383 q 256 383 230 324 q 230 285 233 206 q 235 175 220 160 q 204 145 172 146 q 106 149 91 206 q 69 394 64 582 q 60 770 91 958 z"},"R":{"x_min":0,"x_max":734,"ha":734,"o":"m 86 951 q 86 982 130 994 q 146 998 161 998 q 186 998 205 986 q 357 979 475 941 q 642 890 688 789 q 703 757 703 722 q 703 572 463 426 q 549 278 694 278 q 734 268 734 221 q 734 175 697 140 q 674 118 644 122 q 427 177 329 356 q 279 332 219 310 q 223 272 229 198 q 230 168 215 153 q 199 138 167 140 q 102 143 86 198 q 64 386 60 574 q 55 763 86 951 z m 217 837 q 207 720 207 595 q 207 536 209 477 q 318 507 406 554 q 538 625 538 699 q 538 771 404 809 q 327 830 217 837 z"},"T":{"x_min":0,"x_max":802,"ha":802,"o":"m 472 831 q 455 672 459 514 q 462 392 480 196 q 483 167 467 153 q 451 139 419 141 q 354 144 338 196 q 311 423 311 589 q 311 702 324 815 q 247 810 169 810 q 113 810 57 812 q 16 808 4 874 q 1 887 1 897 q 1 942 41 955 q 79 954 118 954 q 376 954 789 1034 q 798 1036 805 1036 q 851 1036 854 979 q 857 913 805 892 q 619 851 472 831 z"},"P":{"x_min":0,"x_max":697,"ha":697,"o":"m 86 949 q 86 980 130 992 q 146 996 161 996 q 186 996 205 984 q 374 976 502 931 q 691 863 704 734 q 716 600 524 465 q 398 377 219 308 q 223 271 229 196 q 231 166 216 151 q 200 136 167 138 q 102 141 86 196 q 64 384 60 572 q 55 761 86 949 z m 217 835 q 207 720 207 602 q 207 538 210 475 q 319 505 407 552 q 538 622 538 696 q 538 770 404 807 q 327 828 217 835 z"},"|":{"x_min":0,"x_max":314,"ha":314,"o":"m 104 1075 q 104 1127 171 1135 q 237 1143 247 1075 q 223 836 226 596 q 228 399 247 118 q 250 79 234 60 q 218 41 186 43 q 120 47 104 118 q 83 356 78 596 q 73 836 104 1075 z"},"t":{"x_min":0,"x_max":802,"ha":802,"o":"m 472 831 q 455 672 459 514 q 462 392 480 196 q 483 167 467 153 q 451 139 419 141 q 354 144 338 196 q 311 423 311 589 q 311 702 324 815 q 247 810 169 810 q 113 810 57 812 q 16 808 4 874 q 1 887 1 897 q 1 942 41 955 q 79 954 118 954 q 376 954 789 1034 q 798 1036 805 1036 q 851 1036 854 979 q 857 913 805 892 q 619 851 472 831 z"},"M":{"x_min":0,"x_max":839,"ha":839,"o":"m 44 207 q 67 379 90 551 q 121 746 176 887 q 196 982 246 988 q 295 993 316 935 q 332 828 379 683 q 421 560 462 437 q 475 526 526 692 q 579 862 593 948 q 613 990 665 999 q 714 1008 748 878 q 798 690 802 528 q 806 354 827 188 q 828 150 803 127 q 778 104 741 104 q 717 104 697 115 q 674 128 673 150 q 672 251 672 352 q 670 472 643 550 q 601 432 518 193 q 505 125 451 133 q 397 140 396 188 q 271 411 257 576 q 218 460 203 207 q 172 134 114 134 q 78 134 56 163 q 40 182 44 207 z"},"g":{"x_min":0,"x_max":845,"ha":845,"o":"m 562 987 q 625 993 676 950 q 744 892 744 823 q 744 795 730 770 q 706 728 631 729 q 612 740 604 772 q 594 802 580 809 q 546 824 511 824 q 453 824 395 781 q 300 713 225 608 q 172 505 172 439 q 172 410 183 390 q 216 319 302 301 q 347 290 398 290 q 444 290 496 299 q 604 315 677 342 q 678 342 680 344 q 708 435 710 473 q 712 511 680 513 q 649 514 537 473 q 465 444 393 417 q 321 411 319 457 q 316 502 349 527 q 594 658 716 658 q 841 658 841 514 q 841 386 733 156 q 722 95 661 101 q 612 105 612 135 q 612 144 616 153 q 622 170 631 196 q 491 163 387 163 q 239 163 149 219 q 27 293 27 448 q 27 546 80 649 q 170 824 356 924 q 457 978 562 987 z"},"j":{"x_min":0,"x_max":734,"ha":734,"o":"m 331 994 q 603 846 686 664 q 735 555 735 462 q 735 400 714 347 q 659 210 492 159 q 440 144 383 144 q 254 144 97 223 q 21 286 27 323 q 33 360 89 363 q 255 288 379 288 q 550 288 597 390 q 609 418 609 451 q 609 519 558 608 q 479 742 246 892 q 223 914 223 937 q 223 954 239 973 q 263 1000 297 1000 q 313 1000 331 994 z"},"i":{"x_min":0,"x_max":314,"ha":314,"o":"m 108 949 q 108 990 175 996 q 241 1002 251 949 q 227 761 229 572 q 231 418 251 196 q 254 166 238 151 q 222 136 189 138 q 124 141 108 196 q 87 384 82 572 q 77 761 108 949 z"},"y":{"x_min":0,"x_max":690,"ha":690,"o":"m 701 891 q 598 570 337 159 q 312 132 281 132 q 261 132 237 145 q 200 165 200 196 q 200 214 213 235 q 253 301 330 433 q 156 537 102 654 q 55 755 55 835 q 55 938 109 986 q 128 1002 144 1002 q 165 1002 180 972 q 174 844 230 734 q 290 620 399 562 q 511 780 578 968 q 596 992 619 992 q 641 992 667 973 q 707 942 707 912 q 707 901 701 891 z"},"@":{"x_min":0,"x_max":987,"ha":987,"o":"m 586 778 q 693 731 774 600 l 798 403 q 850 506 850 615 q 850 731 788 832 q 740 910 651 939 q 613 952 573 952 q 540 952 506 943 q 374 909 294 792 q 215 675 206 544 q 200 457 231 370 q 262 282 337 227 q 380 195 429 187 q 554 165 557 104 q 560 37 471 35 q 421 34 356 56 q 176 116 100 309 q 60 409 60 515 q 60 611 93 712 q 163 923 341 1030 q 454 1099 569 1099 q 633 1099 697 1077 q 877 1018 955 824 q 995 724 995 619 q 995 521 962 421 q 909 263 791 160 q 771 149 755 149 q 743 149 734 155 q 712 170 718 183 l 711 283 l 711 284 l 711 284 l 703 372 q 674 320 636 296 q 599 271 540 265 q 396 270 342 350 q 298 413 298 485 q 298 601 392 698 q 467 776 586 778 z m 619 570 q 588 609 558 630 q 506 615 475 575 q 443 535 442 481 q 445 445 467 430 q 484 416 523 411 q 557 407 605 468 q 634 502 634 531 q 634 552 619 570 z"},".":{"x_min":0,"x_max":345,"ha":345,"o":"m 160 136 q 126 137 110 161 q 94 185 106 216 q 119 249 153 271 q 187 292 222 292 q 258 291 272 268 q 287 245 274 212 q 262 179 228 157 q 194 135 160 136 z"},"p":{"x_min":0,"x_max":697,"ha":697,"o":"m 86 949 q 86 980 130 992 q 146 996 161 996 q 186 996 205 984 q 374 976 502 931 q 691 863 704 734 q 716 600 524 465 q 398 377 219 308 q 223 271 229 196 q 231 166 216 151 q 200 136 167 138 q 102 141 86 196 q 64 384 60 572 q 55 761 86 949 z m 217 835 q 207 720 207 602 q 207 538 210 475 q 319 505 407 552 q 538 622 538 696 q 538 770 404 807 q 327 828 217 835 z"},"X":{"x_min":0,"x_max":722,"ha":722,"o":"m 62 881 q 54 893 54 907 q 54 940 86 973 q 114 1001 145 1001 q 163 1001 180 986 q 259 839 359 697 q 466 842 580 958 q 593 977 618 974 q 649 969 677 941 q 704 913 704 882 q 704 868 697 854 q 575 720 459 560 q 506 499 675 298 q 694 275 694 253 q 694 225 664 200 q 634 175 604 175 q 581 175 558 192 q 449 314 363 421 q 354 407 205 162 q 186 130 160 130 q 140 130 116 153 q 80 188 80 229 q 80 247 88 267 q 171 418 261 556 q 146 715 62 881 z"},"*":{"x_min":0,"x_max":666,"ha":666,"o":"m 90 725 q 62 724 57 790 q 51 856 87 867 q 129 859 186 854 q 162 888 142 925 q 137 931 137 938 q 137 962 170 995 q 203 1027 228 1027 q 237 1027 247 1021 q 288 954 341 892 q 368 940 416 1037 q 425 1055 442 1055 q 461 1055 488 1036 q 541 999 535 958 q 516 915 489 862 q 524 867 595 877 q 615 880 625 864 q 636 849 636 816 q 635 751 598 734 q 550 725 508 720 q 536 696 592 648 q 604 638 604 624 q 604 604 573 577 q 539 547 510 547 q 498 547 487 552 q 418 604 363 655 q 304 580 255 534 q 248 524 235 524 q 216 524 182 545 q 133 572 133 602 q 133 607 135 613 q 179 657 216 706 q 149 710 90 725 z"},"Y":{"x_min":0,"x_max":690,"ha":690,"o":"m 701 891 q 598 570 337 159 q 312 132 281 132 q 261 132 237 145 q 200 165 200 196 q 200 214 213 235 q 253 301 330 433 q 156 537 102 654 q 55 755 55 835 q 55 938 109 986 q 128 1002 144 1002 q 165 1002 180 972 q 174 844 230 734 q 290 620 399 562 q 511 780 578 968 q 596 992 619 992 q 641 992 667 973 q 707 942 707 912 q 707 901 701 891 z"},"c":{"x_min":0,"x_max":790,"ha":790,"o":"m 557 978 q 619 983 670 941 q 738 884 738 814 q 738 786 724 761 q 699 719 624 720 q 605 731 596 762 q 587 792 573 799 q 539 814 504 814 q 446 814 388 771 q 293 703 218 599 q 165 495 165 431 q 165 401 176 380 q 210 311 296 292 q 341 281 392 281 q 438 281 489 290 q 598 307 670 333 q 688 343 708 343 q 734 343 756 327 q 777 311 777 286 q 777 244 720 212 q 525 154 392 154 q 129 154 53 301 q 17 370 21 453 q 28 628 177 784 q 247 858 344 911 q 446 967 557 978 z"},"!":{"x_min":0,"x_max":438,"ha":438,"o":"m 156 224 q 122 225 106 248 q 91 271 104 304 q 116 336 149 358 q 183 380 218 379 q 254 378 269 355 q 283 332 271 299 q 258 266 225 244 q 191 222 156 224 z m 283 1082 q 288 1103 323 1103 q 338 1103 357 1100 q 425 1087 425 1046 q 366 914 334 776 q 308 666 287 498 q 283 465 247 465 q 233 465 216 470 q 152 488 146 534 q 177 866 283 1082 z"},"/":{"x_min":0,"x_max":809,"ha":809,"o":"m 641 998 q 656 1021 687 1025 q 753 1032 784 984 q 791 973 791 960 q 791 946 783 932 q 612 719 479 537 q 365 380 220 142 q 177 71 101 78 q 47 82 47 117 q 47 130 55 147 q 349 648 641 998 z"},"[":{"x_min":0,"x_max":493,"ha":493,"o":"m 228 994 q 231 980 231 974 q 181 531 194 185 q 194 174 190 159 q 320 157 430 192 q 457 198 467 139 q 470 121 470 107 q 470 75 453 64 q 296 12 184 12 q 146 12 106 17 q 91 14 86 62 q 84 78 84 94 q 84 121 90 142 q 66 163 64 190 q 54 369 56 607 q 58 816 86 1025 q 84 1037 84 1049 q 84 1083 99 1094 q 266 1153 385 1153 q 414 1153 444 1150 q 463 1153 468 1085 q 473 1016 451 1005 q 389 1007 335 1005 q 280 1003 228 994 z"},"6":{"x_min":0,"x_max":716,"ha":716,"o":"m 472 990 q 574 969 574 919 q 574 896 552 867 q 481 842 411 817 q 338 784 295 727 q 363 743 420 743 q 510 743 569 702 q 689 619 689 478 q 689 396 645 312 q 585 200 452 153 q 415 148 381 148 q 231 148 152 243 q 55 359 60 516 q 65 697 179 830 q 293 963 472 990 z m 209 601 q 191 549 191 502 q 191 432 231 372 q 286 305 393 305 q 409 305 426 307 q 476 326 520 373 q 563 419 562 484 q 559 564 505 593 q 451 622 389 624 q 355 625 296 613 q 236 601 209 601 z"},"r":{"x_min":0,"x_max":734,"ha":734,"o":"m 86 951 q 86 982 130 994 q 146 998 161 998 q 186 998 205 986 q 357 979 475 941 q 642 890 688 789 q 703 757 703 722 q 703 572 463 426 q 549 278 694 278 q 734 268 734 221 q 734 175 697 140 q 674 118 644 122 q 427 177 329 356 q 279 332 219 310 q 223 272 229 198 q 230 168 215 153 q 199 138 167 140 q 102 143 86 198 q 64 386 60 574 q 55 763 86 951 z m 217 837 q 207 720 207 595 q 207 536 209 477 q 318 507 406 554 q 538 625 538 699 q 538 771 404 809 q 327 830 217 837 z"},"2":{"x_min":0,"x_max":703,"ha":703,"o":"m 589 169 q 574 154 467 147 q 434 145 400 145 q 326 145 252 156 q 146 173 88 223 q 64 242 64 271 q 64 312 116 371 q 392 519 467 626 q 517 696 517 743 q 517 767 504 783 q 474 823 399 823 q 380 823 357 821 q 249 808 157 716 q 146 705 135 705 q 106 705 83 744 q 68 767 68 794 q 67 820 93 837 q 255 976 411 979 q 566 983 634 898 q 668 855 668 794 q 668 736 637 662 q 572 511 294 339 q 350 294 415 294 q 439 294 466 301 q 528 315 586 315 q 615 315 643 312 q 689 266 689 229 q 689 214 683 201 q 663 165 620 165 q 605 165 589 169 z"},"{":{"x_min":0,"x_max":599,"ha":599,"o":"m 203 955 q 198 958 198 966 q 198 982 220 1022 q 251 1081 275 1078 q 374 970 551 917 q 561 912 561 900 q 561 884 541 852 q 507 796 479 794 q 290 845 203 955 z m 499 354 q 516 360 543 300 q 559 263 559 242 q 559 229 552 222 q 404 210 256 104 q 252 103 248 103 q 229 103 210 153 q 196 188 196 211 q 196 228 203 237 q 358 353 499 354 z m 74 552 q 69 553 69 560 q 69 580 91 624 q 124 692 147 698 q 245 623 422 627 q 432 626 432 614 q 432 597 412 558 q 378 491 350 479 q 160 470 74 552 z"},"9":{"x_min":0,"x_max":716,"ha":716,"o":"m 306 147 q 198 165 198 216 q 198 238 219 267 q 320 304 357 323 q 430 361 469 420 q 389 396 324 396 q 247 396 193 431 q 93 492 69 598 q 62 629 62 662 q 62 737 100 816 q 153 931 284 984 q 332 993 375 993 q 510 993 588 908 q 690 796 693 641 q 696 459 590 322 q 481 183 306 147 z m 549 550 q 562 595 562 635 q 562 713 516 776 q 459 835 360 835 q 340 835 318 833 q 260 806 226 760 q 187 708 191 648 q 203 513 371 517 q 434 518 487 533 z"}," ":{"x_min":0,"x_max":537,"ha":537,"o":""},"I":{"x_min":0,"x_max":562,"ha":562,"o":"m 360 881 q 348 731 350 594 q 352 456 364 308 q 378 307 391 307 q 401 307 423 309 q 445 311 456 311 q 481 311 507 303 q 529 303 533 231 q 536 160 507 150 q 454 163 402 163 q 352 163 301 151 q 232 135 95 106 q 78 104 70 120 q 62 137 62 172 q 64 241 95 259 l 157 271 q 188 276 221 280 q 206 430 203 562 q 199 692 215 842 q 162 837 95 823 q 77 821 69 838 q 62 854 62 890 q 64 958 95 976 q 197 993 303 1022 q 368 1040 433 1040 q 472 1040 511 1033 q 533 1033 537 962 q 540 891 511 881 q 488 886 466 886 q 452 886 425 883 q 398 880 385 880 q 372 880 360 881 z"},"H":{"x_min":0,"x_max":703,"ha":703,"o":"m 83 997 q 83 1042 149 1049 q 216 1056 227 997 q 204 815 204 605 q 204 515 208 425 q 301 445 485 484 q 481 564 481 645 q 481 849 508 1020 q 508 1064 574 1071 q 641 1077 651 1020 q 629 839 629 634 q 629 575 631 516 q 634 516 640 518 q 701 509 701 457 q 700 405 646 379 l 637 377 q 642 313 651 187 q 653 152 638 136 q 622 120 589 122 q 523 125 508 187 q 501 257 494 341 l 218 272 q 221 237 227 165 q 229 131 213 115 q 197 99 164 101 q 99 104 83 165 q 62 373 57 581 q 52 789 83 997 z"},"4":{"x_min":0,"x_max":573,"ha":573,"o":"m 402 963 q 411 997 461 1000 q 511 1002 519 952 q 501 786 501 593 q 501 539 502 485 l 518 485 q 528 489 537 489 q 566 489 569 441 q 572 380 531 374 q 525 372 507 369 q 508 342 519 200 q 521 170 508 155 q 495 140 468 142 q 414 145 400 200 q 393 274 389 354 q 317 347 253 348 q 188 348 120 356 l 120 361 q 88 354 67 400 q 57 422 57 442 q 57 466 69 487 q 97 522 234 725 q 274 786 315 847 q 367 924 402 963 z m 382 482 q 378 547 378 611 q 378 677 382 742 q 374 732 320 648 l 217 486 q 291 482 382 482 z"},"~":{"x_min":0,"x_max":584,"ha":584,"o":"m 43 271 l 43 372 q 94 431 178 431 q 207 431 239 422 q 271 414 332 389 q 365 374 382 370 q 398 365 416 365 q 447 365 481 384 q 516 403 542 432 l 542 328 q 511 299 479 286 q 447 273 406 273 q 377 273 351 280 q 324 287 267 312 q 209 338 170 338 q 139 338 111 325 q 84 312 43 271 z"},"D":{"x_min":0,"x_max":716,"ha":716,"o":"m 76 950 q 90 1005 159 1000 q 357 987 513 883 q 696 761 696 575 q 696 452 586 337 q 461 206 159 159 q 147 157 138 157 q 89 157 80 203 q 56 327 54 574 q 53 686 59 789 q 64 902 76 950 z m 215 293 q 443 332 511 431 q 558 499 558 567 q 558 598 549 628 q 520 728 428 799 q 351 858 277 858 q 263 858 248 856 q 188 847 178 642 q 176 612 176 583 q 176 523 182 460 q 190 364 215 293 z"},"^":{"x_min":0,"x_max":469,"ha":469,"o":"m 117 337 l 26 337 l 199 729 l 270 729 l 443 337 l 354 337 l 234 629 z"},"0":{"x_min":0,"x_max":690,"ha":690,"o":"m 472 973 q 590 926 642 773 q 668 694 668 611 q 668 535 646 456 q 599 289 481 205 q 407 151 332 151 q 290 151 247 169 q 128 217 77 367 q 50 446 50 529 q 50 605 72 685 q 119 851 236 936 q 312 989 387 989 q 430 989 472 973 z m 431 831 q 408 840 386 840 q 337 840 287 801 q 228 754 196 674 q 165 594 166 513 q 167 427 210 352 q 253 277 335 285 q 415 293 469 372 q 542 479 542 596 q 542 650 526 711 q 503 802 431 831 z"},"F":{"x_min":0,"x_max":642,"ha":642,"o":"m 86 921 q 98 996 163 999 q 261 1003 389 981 q 499 959 610 937 q 660 911 657 877 q 653 842 614 825 q 489 832 379 845 q 350 848 325 848 q 259 848 231 822 q 223 813 221 769 q 219 745 219 721 q 219 643 229 570 q 235 523 245 512 q 266 510 286 510 q 335 510 390 521 q 449 532 526 551 q 550 557 566 534 q 580 516 584 490 q 587 461 576 441 q 562 420 534 422 q 476 394 379 380 q 275 365 238 351 q 230 324 223 300 q 223 302 229 286 q 238 268 242 249 q 236 155 172 133 q 160 129 151 129 q 102 129 87 224 q 63 376 62 567 q 60 751 86 921 z"},"`":{"x_min":0,"x_max":337,"ha":337,"o":"m 310 721 q 308 707 303 701 q 293 687 267 695 q 222 709 167 774 q 122 828 95 884 q 50 974 74 1007 q 85 1021 110 1013 q 147 1000 198 944 q 240 897 272 840 q 314 766 310 721 z"},"k":{"x_min":0,"x_max":660,"ha":660,"o":"m 91 958 q 91 999 157 1005 q 224 1011 233 958 q 199 751 199 658 q 199 564 231 564 q 271 564 366 718 q 438 833 522 980 q 540 999 561 999 q 583 999 609 978 q 643 949 643 925 q 643 914 636 903 q 579 812 522 720 q 430 569 429 545 q 425 503 525 373 q 592 292 657 212 q 666 193 666 176 q 666 145 637 116 q 615 96 596 96 q 574 96 554 122 q 394 274 334 351 q 309 383 286 383 q 256 383 230 324 q 230 285 233 206 q 235 175 220 160 q 204 145 172 146 q 106 149 91 206 q 69 394 64 582 q 60 770 91 958 z"},"u":{"x_min":0,"x_max":777,"ha":777,"o":"m 610 942 q 610 983 677 989 q 743 995 754 942 q 729 755 732 566 q 734 412 754 190 q 757 160 741 145 q 725 130 691 132 q 626 135 610 190 q 606 226 605 242 q 502 145 396 145 q 322 145 255 184 q 192 221 149 284 q 70 398 67 582 q 63 765 190 973 q 205 991 226 991 q 245 991 271 976 q 312 948 312 910 q 312 901 311 892 q 222 696 221 560 q 220 457 251 391 q 293 302 384 302 q 487 302 590 423 q 584 514 584 604 q 584 785 610 942 z"},"]":{"x_min":0,"x_max":493,"ha":493,"o":"m 297 994 q 243 1003 189 1005 q 135 1007 73 1005 q 54 1014 54 1061 q 54 1071 56 1085 q 61 1153 80 1150 q 109 1153 139 1153 q 257 1153 426 1094 q 440 1082 440 1046 q 440 1036 438 1025 q 466 816 468 607 q 470 398 460 190 q 455 161 435 142 q 440 122 440 96 q 440 80 438 62 q 433 14 418 17 q 379 12 341 12 q 227 12 71 64 q 55 75 55 108 q 55 122 58 139 q 66 198 95 192 q 202 157 334 159 q 329 169 330 185 q 343 526 292 974 q 293 980 297 994 z"},"U":{"x_min":0,"x_max":777,"ha":777,"o":"m 610 942 q 610 983 677 989 q 743 995 754 942 q 729 755 732 566 q 734 412 754 190 q 757 160 741 145 q 725 130 691 132 q 626 135 610 190 q 606 226 605 242 q 502 145 396 145 q 322 145 255 184 q 192 221 149 284 q 70 398 67 582 q 63 765 190 973 q 205 991 226 991 q 245 991 271 976 q 312 948 312 910 q 312 901 311 892 q 222 696 221 560 q 220 457 251 391 q 293 302 384 302 q 487 302 590 423 q 584 514 584 604 q 584 785 610 942 z"},"o":{"x_min":0,"x_max":777,"ha":777,"o":"m 535 975 q 676 928 737 775 q 770 696 770 612 q 770 537 743 458 q 688 291 548 207 q 458 153 369 153 q 317 153 267 171 q 125 219 64 369 q 32 449 32 532 q 32 608 59 687 q 113 853 254 938 q 344 991 435 991 q 484 991 535 975 z m 485 834 q 442 849 396 838 q 351 827 314 803 q 244 755 207 677 q 169 596 171 515 q 173 429 224 354 q 275 279 373 287 q 468 295 532 374 q 620 481 620 599 q 620 652 602 713 q 573 804 485 834 z"},"N":{"x_min":0,"x_max":777,"ha":777,"o":"m 101 983 q 105 1007 134 1026 q 159 1042 187 1046 q 221 1051 240 1034 q 260 1018 259 983 q 257 978 257 973 q 320 768 384 608 q 506 302 575 302 q 629 302 622 504 q 615 683 549 983 q 553 1025 588 1020 q 622 1013 663 973 q 755 718 755 525 q 755 488 752 453 q 730 237 645 167 q 608 139 567 139 q 509 139 438 199 q 316 301 227 634 q 221 410 259 148 q 263 120 236 107 q 216 98 186 100 q 108 104 101 148 q 63 363 62 562 q 59 772 101 983 z"},"+":{"x_min":0,"x_max":672,"ha":672,"o":"m 279 802 q 279 829 346 833 q 412 837 422 802 q 404 705 401 609 q 453 612 599 633 q 619 636 629 620 q 640 604 640 572 q 639 507 602 490 q 499 470 404 462 q 404 460 422 293 q 424 272 408 262 q 393 252 360 253 q 295 255 279 293 q 263 396 258 459 q 176 462 94 479 q 65 479 61 546 q 55 612 91 623 q 164 609 254 606 q 257 708 279 802 z"},"G":{"x_min":0,"x_max":845,"ha":845,"o":"m 562 987 q 625 993 676 950 q 744 892 744 823 q 744 795 730 770 q 706 728 631 729 q 612 740 604 772 q 594 802 580 809 q 546 824 511 824 q 453 824 395 781 q 300 713 225 608 q 172 505 172 439 q 172 410 183 390 q 216 319 302 301 q 347 290 398 290 q 444 290 496 299 q 604 315 677 342 q 678 342 680 344 q 708 435 710 473 q 712 511 680 513 q 649 514 537 473 q 465 444 393 417 q 321 411 319 457 q 316 502 349 527 q 594 658 716 658 q 841 658 841 514 q 841 386 733 156 q 722 95 661 101 q 612 105 612 135 q 612 144 616 153 q 622 170 631 196 q 491 163 387 163 q 239 163 149 219 q 27 293 27 448 q 27 546 80 649 q 170 824 356 924 q 457 978 562 987 z"},"q":{"x_min":0,"x_max":790,"ha":790,"o":"m 536 976 q 677 929 738 776 q 770 697 770 614 q 770 475 693 354 q 753 267 799 161 q 806 146 806 131 q 806 98 772 69 q 751 52 735 52 q 715 52 700 82 q 668 152 604 249 q 493 155 366 155 q 317 155 268 172 q 125 220 64 370 q 33 448 33 531 q 33 607 60 688 q 115 854 255 938 q 345 992 436 992 q 485 992 536 976 z m 345 534 q 308 556 307 580 q 303 632 378 634 q 413 635 443 612 q 519 557 594 477 q 620 543 620 600 q 620 654 602 714 q 573 805 486 835 q 444 850 397 839 q 351 828 314 804 q 244 756 207 677 q 170 599 172 516 q 174 429 224 354 q 274 280 373 288 q 453 295 520 361 q 442 453 345 534 z"},"d":{"x_min":0,"x_max":716,"ha":716,"o":"m 76 950 q 90 1005 159 1000 q 357 987 513 883 q 696 761 696 575 q 696 452 586 337 q 461 206 159 159 q 147 157 138 157 q 89 157 80 203 q 56 327 54 574 q 53 686 59 789 q 64 902 76 950 z m 215 293 q 443 332 511 431 q 558 499 558 567 q 558 598 549 628 q 520 728 428 799 q 351 858 277 858 q 263 858 248 856 q 188 847 178 642 q 176 612 176 583 q 176 523 182 460 q 190 364 215 293 z"},"1":{"x_min":0,"x_max":400,"ha":400,"o":"m 228 963 q 236 997 291 1000 q 345 1002 354 952 q 331 764 334 576 q 336 419 354 200 q 356 170 342 155 q 327 140 299 142 q 240 145 226 200 q 202 428 202 602 q 202 672 206 742 q 187 719 166 696 q 137 666 119 666 q 96 666 77 697 q 60 725 60 750 q 60 772 73 795 q 105 833 148 879 z"},"5":{"x_min":0,"x_max":753,"ha":753,"o":"m 531 984 q 561 1000 584 1000 q 608 1000 625 983 q 642 966 642 941 q 642 908 609 859 q 573 843 515 834 q 466 828 417 822 q 288 802 238 737 q 234 732 234 725 q 234 691 258 663 q 282 634 317 634 q 331 634 348 638 q 461 664 540 664 q 621 664 671 630 q 729 591 729 514 q 729 472 707 425 q 654 310 506 211 q 385 131 241 131 q 207 131 172 136 q 120 152 125 235 q 128 299 157 299 q 163 299 171 294 q 227 260 286 260 q 328 260 373 277 q 480 317 521 380 q 536 403 536 425 q 536 474 477 496 q 436 512 378 512 q 297 512 171 489 q 141 483 107 545 q 85 585 72 631 q 55 690 57 751 q 58 811 92 839 q 172 905 345 955 q 456 987 514 987 q 526 987 531 984 z"}}}
